<?xml version="1.0" encoding="utf-8"?>
<!-- Generator: Adobe Illustrator 28.1.0, SVG Export Plug-In . SVG Version: 6.00 Build 0)  -->
<svg version="1.1" id="Layer_1" xmlns="http://www.w3.org/2000/svg" xmlns:xlink="http://www.w3.org/1999/xlink" x="0px" y="0px"
	 viewBox="0 0 37 60" style="enable-background:new 0 0 37 60;" xml:space="preserve">
<style type="text/css">
	.st0{fill:#1D73A4;}
	.st1{fill:#231F20;}
</style>
<g>
	<g>
		<path class="st0" d="M32.6,5.5c-4.5-0.2-10.8,1.8-15.4,5.2c-4,2.9-11.7,10.3-9.1,16.5c2.2,5.3,11.2,7.2,17.3,4.9l6,5.8
			c-2.9,1.2-6,2-9,2.1c-1.9,0.1-11,0.5-15.6-5.9c-2.6-3.7-2.5-7.9-2.4-9.2c0.4-5.5,3.8-9,5.3-10.5C15.2,8.7,24.6,5,32.6,5.5"/>
		<path class="st0" d="M6.8,35.6c2.9,3.4,8.5,5.6,15,5.6c4.1,0,7.9-0.9,10.8-2.4l-0.8-0.7c-2.9,1.5-6.6,2.4-10.7,2.4
			c-6.2,0-11.6-2-14.6-5.1L6.8,35.6z"/>
		<path class="st0" d="M9.6,28.7c1.3,2,5.5,3.7,9.1,3.8c2,0.1,4.2-0.3,6.1-1L24,31c-1.8,0.7-4,1-5.9,0.9C15,31.7,11.4,30.4,9.6,28.7
			"/>
		<path class="st0" d="M9.6,27.5c1.2,2,5.1,3.7,8.5,3.8c1.8,0.1,4-0.3,5.7-1l-0.7-0.6c-1.7,0.7-3.7,1-5.5,0.9
			C14.6,30.5,11.3,29.2,9.6,27.5"/>
	</g>
	<g>
		<circle class="st1" cx="6" cy="46.1" r="0.3"/>
		<circle class="st1" cx="6.8" cy="46.1" r="0.3"/>
		<path class="st1" d="M14.1,49.4v-0.4h0.8c0,0,0.4,0.1,0.4-0.5v-1.6h0.5v1.4c0,0,0,1.1-0.7,1.1H14.1z"/>
		<rect x="16.2" y="45.4" class="st1" width="0.5" height="2.9"/>
		<path class="st1" d="M4.9,47.8h2.3c0,0,0.3,0,0.3-0.3v-0.7h0.5v0.8c0,0,0.1,0.7-0.6,0.7l-1.8,0C5.5,48.4,4.9,48.5,4.9,47.8z"/>
		<path class="st1" d="M11.3,45.4h0.5v2c0,0-0.1,0.4,0.5,0.4c0,0,0.5,0,0.5-0.4v-0.6h0.5v0.6c0,0-0.1,0.4,0.6,0.4c0,0,0.5,0,0.5-0.3
			v-0.6h0.5v0.8c0,0,0.1,0.8-0.7,0.8h-0.6c0,0-0.5,0.1-0.6-0.3c0,0,0,0.3-0.6,0.3c0,0-1,0.1-1-0.6L11.3,45.4L11.3,45.4z"/>
		<circle class="st1" cx="12.4" cy="49" r="0.3"/>
		<circle class="st1" cx="13.9" cy="46" r="0.3"/>
		<circle class="st1" cx="14.7" cy="46" r="0.3"/>
		<circle class="st1" cx="26.6" cy="46.1" r="0.3"/>
		<circle class="st1" cx="27.4" cy="46.1" r="0.3"/>
		<path class="st1" d="M37.1,47.8c0,0,0,0.6-0.6,0.6H34c0,0,0,1-0.8,1h-0.7v-0.5l0.4,0c0,0,0.6,0,0.6-0.5v-1.5H34v1H37.1z"/>
		<path class="st1" d="M28.1,47.8h2.5v-1h0.5v1h1.4c0,0,0.5-0.1-1-1.4v-0.6l1.4-0.7v0.6l-0.9,0.4l0.6,0.7c0,0,0.3,0.4,0.3,1
			c0,0,0,0.6-0.9,0.6h-0.6c0,0-0.6,0.1-0.7-0.3c0,0,0,0.3-0.7,0.3h-1.3C28.8,48.4,28.1,48.5,28.1,47.8z"/>
		<circle class="st1" cx="29.2" cy="46.1" r="0.3"/>
		<circle class="st1" cx="30" cy="46.1" r="0.3"/>
		<circle class="st1" cx="35.6" cy="46.3" r="0.3"/>
		<circle class="st1" cx="36.4" cy="46.3" r="0.3"/>
		<circle class="st1" cx="35.9" cy="45.5" r="0.3"/>
		<path class="st1" d="M25.9,47.8v-0.5c0-0.9-0.7-0.8-0.7-0.8c-0.8,0-0.7,1-0.7,1c0,1.1,1.1,0.9,1.1,0.9c0,0.7-0.7,0.5-0.7,0.5h-0.4
			v0.4h0.7c0.7,0,0.7-1,0.7-1h0.9c0.4,0,0.5-0.6,0.5-0.6L25.9,47.8L25.9,47.8L25.9,47.8z M25.5,47.8c0,0-0.5,0.1-0.5-0.4
			c0,0,0-0.4,0.2-0.4c0,0,0.3,0,0.3,0.5V47.8z"/>
		<path class="st1" d="M24.2,47.7v-0.8h-0.5v0.8c0,0.2-0.2,0.1-0.2,0.1c-0.2,0-0.2-0.2-0.2-0.2v-0.8h-0.5v0.8c0,0.1-0.2,0.1-0.2,0.1
			c-0.3,0-0.3-0.1-0.3-0.1v-0.8h-0.5v0.8c0,0.3-0.3,0.2-0.3,0.2c-0.7,0-0.7-0.1-0.7-0.1c0.4-0.1,0.4-0.6,0.4-0.6
			c0-0.7-0.6-0.7-0.6-0.7h-0.8l-0.3,0.7l0.5,0.6c-0.1,0.2-0.5,0.1-0.5,0.1c-0.3,0-1.5-1.7-1.5-1.7c-0.5,0.3-0.2,0.7-0.2,0.7
			c-0.4,0.1-0.4,0.8-0.4,0.8c0,0.9,0.7,0.8,0.7,0.8c0.6,0,0.7-0.5,0.7-0.5c0.1,0.5,0.9,0.5,0.9,0.5c0.6,0,0.6-0.3,0.6-0.3
			c0,0.4,1,0.3,1,0.3c0.6,0,0.6-0.3,0.6-0.3c0.1,0.3,0.6,0.3,0.6,0.3c0.4,0,0.4-0.3,0.4-0.3c0,0.3,0.6,0.3,0.6,0.3
			C24.3,48.4,24.2,47.7,24.2,47.7z M18,47.8c0,0-0.4-0.2,0.2-0.7l0.4,0.4C18.6,47.5,18.3,48,18,47.8z M20.4,47.4L20.1,47h0.6
			L20.4,47.4z"/>
		<path class="st1" d="M11,47.5c0-1.2-0.7-1.1-0.7-1.1c-0.5,0-0.7,0.4-0.7,0.4v-1.4H9.2v2.4c-0.5,0-0.4-0.4-0.4-0.4v-2H8.2v2.2
			c0,0.8,0.9,0.8,0.9,0.8h1C11,48.4,11,47.5,11,47.5z M10.5,47.5c0,0,0,0.4-0.3,0.4l-0.6,0c0,0,0.2-0.8,0.6-0.8
			C10.3,47,10.6,47,10.5,47.5z"/>
		<path class="st0" d="M2.2,45.6h0.5v2.1c0,0,0,0.3,0.3,0.3h1.2c0,0,0.1,0.6-0.6,0.6H3c0,0-0.8,0.1-0.8-0.8L2.2,45.6L2.2,45.6z"/>
		<path class="st0" d="M-0.1,45.6h0.5v2.1c0,0,0,0.3,0.3,0.3H2c0,0,0.1,0.6-0.6,0.6H0.8c0,0-0.8,0.1-0.8-0.8L-0.1,45.6L-0.1,45.6z"
			/>
		<circle class="st0" cx="3.8" cy="46.1" r="0.3"/>
		<circle class="st0" cx="3.8" cy="46.9" r="0.3"/>
		<circle class="st0" cx="1.2" cy="49.1" r="0.3"/>
		<g>
			<path class="st1" d="M12.2,51.3c-0.2,0.3-0.3,0.5-0.3,0.7c-0.1,0.3-0.1,0.5-0.1,0.8c0,0.3,0,0.6,0.1,0.9c0.1,0.3,0.2,0.5,0.3,0.8
				h-0.1c-0.2-0.3-0.3-0.5-0.4-0.8c-0.1-0.3-0.2-0.5-0.2-0.8c0-0.3,0.1-0.5,0.2-0.8c0.1-0.2,0.2-0.4,0.4-0.7L12.2,51.3L12.2,51.3z"
				/>
			<path class="st1" d="M15.5,52.9c0,0.1,0,0.2-0.1,0.3c-0.1,0.1-0.2,0.1-0.3,0.1h-0.7c-0.1,0-0.2,0-0.3-0.1c0,0.2-0.1,0.4-0.2,0.5
				c-0.1,0.2-0.3,0.2-0.5,0.2H13c-0.2,0-0.3-0.1-0.4-0.2c-0.1-0.1-0.2-0.3-0.2-0.5v-0.5h0.3v0.5c0,0.1,0,0.2,0.1,0.3
				c0.1,0.1,0.2,0.1,0.3,0.1h0.4c0.1,0,0.2,0,0.3-0.1c0.1-0.1,0.1-0.2,0.1-0.3v-0.8h0.3v0.4c0,0.1,0.1,0.2,0.2,0.2
				c0.1-0.2,0.2-0.4,0.3-0.5c0.1-0.2,0.3-0.3,0.4-0.3c0.1,0,0.2,0.1,0.3,0.2c0,0,0,0,0,0.1c0,0,0,0.1,0.1,0.1
				C15.5,52.7,15.5,52.8,15.5,52.9z M15.2,52.8c0-0.1,0-0.1,0-0.2c0-0.1-0.1-0.1-0.1-0.1c-0.1,0-0.2,0.1-0.3,0.2
				c-0.1,0.1-0.2,0.2-0.2,0.3H15C15.2,53,15.2,53,15.2,52.8z"/>
			<path class="st1" d="M16.2,53.3c-0.2,0-0.4,0-0.4-0.1c-0.1-0.1-0.1-0.1-0.1-0.3v-1.2H16v1.1c0,0.1,0,0.2,0.1,0.2c0,0,0.1,0,0.2,0
				L16.2,53.3L16.2,53.3z"/>
			<path class="st1" d="M17.6,52.8L17,53.1c-0.1,0.1-0.3,0.1-0.4,0.1c-0.1,0-0.2,0-0.4,0V53c0.3,0,0.6,0,0.7-0.1c0,0,0.1,0,0.2-0.1
				c0.1,0,0.2-0.1,0.3-0.2c0-0.1-0.1-0.1-0.2-0.1c0,0-0.1,0-0.2,0h-0.4l0-0.3h0.6C17.4,52.3,17.6,52.5,17.6,52.8z M17.1,51.8
				c0,0,0,0.1-0.1,0.1c0,0-0.1,0.1-0.1,0.1c-0.1,0-0.2-0.1-0.2-0.2c0-0.1,0.1-0.2,0.2-0.2C17,51.7,17.1,51.7,17.1,51.8z"/>
			<path class="st1" d="M20.1,53.3h-0.2l0,0.1c0,0.1-0.1,0.3-0.2,0.4c-0.1,0.1-0.2,0.1-0.4,0.1h-0.4c-0.2,0-0.4-0.1-0.5-0.2
				c-0.1-0.1-0.2-0.3-0.2-0.5v-0.4h0.3v0.5c0,0.1,0,0.2,0.1,0.3c0.1,0.1,0.2,0.1,0.3,0.1h0.3c0.1,0,0.2,0,0.2-0.1
				c0.1-0.1,0.1-0.1,0.1-0.2c0-0.1-0.1-0.1-0.2-0.1c0,0-0.1,0-0.3,0l0-0.3h1V53.3z"/>
			<path class="st1" d="M21.2,52.8c0,0.1,0,0.3-0.1,0.4c-0.1,0.1-0.2,0.2-0.3,0.2c-0.1,0-0.2,0-0.3-0.1c-0.1,0-0.2,0.1-0.4,0.1V53
				c0.1,0,0.2,0,0.3,0c0,0,0-0.1,0-0.2c0-0.4,0.2-0.5,0.4-0.5c0.1,0,0.3,0.1,0.3,0.2C21.1,52.6,21.2,52.7,21.2,52.8z M21,52.8
				c0-0.2-0.1-0.3-0.2-0.3c-0.1,0-0.2,0.1-0.2,0.3c0,0.2,0.1,0.3,0.2,0.3C20.9,53.1,21,53,21,52.8z"/>
			<path class="st1" d="M22,53.3c-0.2,0-0.4,0-0.4-0.1c-0.1-0.1-0.1-0.1-0.1-0.3v-1.2h0.3v1.1c0,0.1,0,0.2,0.1,0.2c0,0,0.1,0,0.2,0
				V53.3z"/>
			<path class="st1" d="M23.1,53.3h-0.3c0.1,0.1,0.2,0.2,0.2,0.4c0,0.2-0.1,0.3-0.4,0.3c-0.3,0-0.5-0.1-0.5-0.4l0-0.3h-0.2V53h0.2
				c0-0.2,0-0.3,0-0.3c0-0.3,0.2-0.5,0.5-0.5c0.1,0,0.2,0,0.3,0.1c0.1,0.1,0.1,0.2,0.1,0.3c0,0.1-0.1,0.3-0.2,0.4h0.3L23.1,53.3
				L23.1,53.3L23.1,53.3z M22.7,52.7c0-0.1-0.1-0.2-0.2-0.2c-0.2,0-0.2,0.1-0.2,0.3c0,0,0,0.1,0,0.2c0.1,0,0.2,0,0.3-0.1
				C22.6,52.9,22.7,52.8,22.7,52.7z M22.7,53.6c0-0.1-0.1-0.2-0.2-0.2c-0.1-0.1-0.2-0.1-0.3-0.1c0,0.3,0.1,0.5,0.3,0.5
				C22.7,53.8,22.7,53.7,22.7,53.6z"/>
			<path class="st1" d="M25,52.9c0,0.1,0,0.2-0.1,0.3c-0.1,0.1-0.2,0.1-0.3,0.1c-0.1,0-0.2-0.1-0.3-0.2c-0.1,0.1-0.2,0.2-0.3,0.2
				s-0.2-0.1-0.3-0.2c-0.1,0.1-0.2,0.2-0.3,0.2H23V53h0.3c0.1,0,0.2-0.1,0.2-0.2v-0.4h0.3v0.4c0,0.1,0,0.1,0.1,0.2s0.1,0.1,0.2,0.1
				c0.1,0,0.2-0.1,0.2-0.2v-0.4h0.3v0.4c0,0.1,0,0.1,0.1,0.1c0,0,0.1,0.1,0.2,0.1c0.1,0,0.2-0.1,0.2-0.2v-0.4H25L25,52.9L25,52.9
				L25,52.9z"/>
			<path class="st1" d="M25.9,52.9c0,0.3-0.1,0.6-0.2,0.8c-0.1,0.2-0.2,0.4-0.4,0.7h-0.1c0.3-0.6,0.4-1.1,0.4-1.5
				c0-0.4,0-0.6-0.1-0.9c-0.1-0.2-0.2-0.4-0.4-0.8h0.1c0.2,0.3,0.3,0.5,0.4,0.7C25.8,52.4,25.9,52.6,25.9,52.9z"/>
		</g>
	</g>
</g>
</svg>
