<?xml version="1.0" encoding="utf-8"?>
<!-- Generator: Adobe Illustrator 28.1.0, SVG Export Plug-In . SVG Version: 6.00 Build 0)  -->
<svg version="1.1" id="Layer_1" xmlns="http://www.w3.org/2000/svg" xmlns:xlink="http://www.w3.org/1999/xlink" x="0px" y="0px"
	 viewBox="0 0 10 16" style="enable-background:new 0 0 10 16;" xml:space="preserve">
<style type="text/css">
	.st0{fill:#1D73A4;}
	.st1{fill:#231F20;}
</style>
<g>
	<g>
		<path class="st0" d="M8.8,1.5c-1.2,0-2.9,0.5-4.1,1.4C3.6,3.6,1.5,5.6,2.2,7.2c0.6,1.4,3,1.9,4.6,1.3l1.6,1.6
			c-0.8,0.3-1.6,0.5-2.4,0.6c-0.5,0-2.9,0.1-4.2-1.6C1.2,8.1,1.2,7,1.2,6.6c0.1-1.5,1-2.4,1.4-2.8C4.1,2.3,6.6,1.3,8.8,1.5"/>
		<path class="st0" d="M1.9,9.5c0.8,0.9,2.3,1.5,4,1.5C7,11,8,10.8,8.8,10.4l-0.2-0.2c-0.8,0.4-1.8,0.6-2.9,0.6
			C4.1,10.8,2.6,10.3,1.9,9.5L1.9,9.5z"/>
		<path class="st0" d="M2.6,7.7c0.4,0.5,1.5,1,2.4,1c0.5,0,1.1-0.1,1.6-0.3L6.5,8.3C6,8.4,5.4,8.5,4.9,8.5C4.1,8.5,3.1,8.1,2.6,7.7"
			/>
		<path class="st0" d="M2.6,7.3c0.3,0.5,1.4,1,2.3,1c0.5,0,1.1-0.1,1.5-0.3L6.2,7.9c-0.4,0.2-1,0.3-1.5,0.2C4,8.1,3.1,7.8,2.6,7.3"
			/>
	</g>
	<g>
		<circle class="st1" cx="1.7" cy="12.3" r="0.1"/>
		<circle class="st1" cx="1.9" cy="12.3" r="0.1"/>
		<path class="st1" d="M3.8,13.2v-0.1h0.2c0,0,0.1,0,0.1-0.1v-0.4h0.1v0.4c0,0,0,0.3-0.2,0.3H3.8z"/>
		<rect x="4.4" y="12.1" class="st1" width="0.1" height="0.8"/>
		<path class="st1" d="M1.4,12.8H2c0,0,0.1,0,0.1-0.1v-0.2h0.1v0.2c0,0,0,0.2-0.2,0.2l-0.5,0C1.5,12.9,1.4,12.9,1.4,12.8z"/>
		<path class="st1" d="M3.1,12.1h0.1v0.5c0,0,0,0.1,0.1,0.1c0,0,0.1,0,0.1-0.1v-0.1h0.1v0.2c0,0,0,0.1,0.2,0.1c0,0,0.1,0,0.1-0.1
			v-0.2H4v0.2c0,0,0,0.2-0.2,0.2H3.7c0,0-0.1,0-0.2-0.1c0,0,0,0.1-0.2,0.1c0,0-0.3,0-0.3-0.2L3.1,12.1L3.1,12.1z"/>
		<circle class="st1" cx="3.4" cy="13.1" r="0.1"/>
		<circle class="st1" cx="3.8" cy="12.3" r="0.1"/>
		<circle class="st1" cx="4" cy="12.3" r="0.1"/>
		<circle class="st1" cx="7.2" cy="12.3" r="0.1"/>
		<circle class="st1" cx="7.4" cy="12.3" r="0.1"/>
		<path class="st1" d="M10,12.8c0,0,0,0.2-0.2,0.2H9.1c0,0,0,0.3-0.2,0.3H8.7V13l0.1,0c0,0,0.2,0,0.2-0.1v-0.4h0.1v0.3H10z"/>
		<path class="st1" d="M7.6,12.8h0.7v-0.3h0.1v0.3h0.4c0,0,0.1,0-0.3-0.4v-0.2l0.4-0.2v0.2l-0.2,0.1l0.2,0.2c0,0,0.1,0.1,0.1,0.3
			c0,0,0,0.2-0.2,0.2H8.5c0,0-0.2,0-0.2-0.1c0,0,0,0.1-0.2,0.1H7.7C7.7,12.9,7.6,12.9,7.6,12.8z"/>
		<circle class="st1" cx="7.9" cy="12.3" r="0.1"/>
		<circle class="st1" cx="8.1" cy="12.3" r="0.1"/>
		<circle class="st1" cx="9.6" cy="12.4" r="0.1"/>
		<circle class="st1" cx="9.8" cy="12.4" r="0.1"/>
		<circle class="st1" cx="9.7" cy="12.2" r="0.1"/>
		<path class="st1" d="M7,12.8v-0.1c0-0.2-0.2-0.2-0.2-0.2c-0.2,0-0.2,0.3-0.2,0.3c0,0.3,0.3,0.2,0.3,0.2c0,0.2-0.2,0.1-0.2,0.1H6.6
			v0.1h0.2C7,13.2,7,12.9,7,12.9h0.2c0.1,0,0.1-0.2,0.1-0.2L7,12.8L7,12.8L7,12.8z M6.9,12.8c0,0-0.1,0-0.1-0.1c0,0,0-0.1,0.1-0.1
			C6.8,12.5,6.9,12.5,6.9,12.8L6.9,12.8z"/>
		<path class="st1" d="M6.5,12.7v-0.2H6.4v0.2c0,0.1-0.1,0-0.1,0c-0.1,0-0.1,0-0.1,0v-0.2H6.1v0.2c0,0-0.1,0-0.1,0
			c-0.1,0-0.1,0-0.1,0v-0.2H5.9v0.2c0,0.1-0.1,0.1-0.1,0.1c-0.2,0-0.2,0-0.2,0c0.1,0,0.1-0.2,0.1-0.2c0-0.2-0.2-0.2-0.2-0.2H5.4
			l-0.1,0.2l0.1,0.2c0,0.1-0.1,0-0.1,0c-0.1,0-0.4-0.5-0.4-0.5c-0.1,0.1,0,0.2,0,0.2c-0.1,0-0.1,0.2-0.1,0.2c0,0.2,0.2,0.2,0.2,0.2
			c0.2,0,0.2-0.1,0.2-0.1c0,0.1,0.2,0.1,0.2,0.1c0.2,0,0.2-0.1,0.2-0.1c0,0.1,0.3,0.1,0.3,0.1C6,12.9,6,12.8,6,12.8
			c0,0.1,0.2,0.1,0.2,0.1c0.1,0,0.1-0.1,0.1-0.1c0,0.1,0.2,0.1,0.2,0.1C6.5,12.9,6.5,12.7,6.5,12.7z M4.9,12.7c0,0-0.1-0.1,0-0.2
			L5,12.7C5,12.7,5,12.8,4.9,12.7z M5.5,12.7l-0.1-0.1h0.2L5.5,12.7z"/>
		<path class="st1" d="M3,12.7c0-0.3-0.2-0.3-0.2-0.3c-0.1,0-0.2,0.1-0.2,0.1v-0.4H2.5v0.6c-0.1,0-0.1-0.1-0.1-0.1v-0.5H2.3v0.6
			c0,0.2,0.2,0.2,0.2,0.2h0.3C3,12.9,3,12.7,3,12.7z M2.9,12.7c0,0,0,0.1-0.1,0.1l-0.2,0c0,0,0.1-0.2,0.2-0.2
			C2.8,12.6,2.9,12.5,2.9,12.7z"/>
		<path class="st0" d="M0.6,12.2h0.1v0.6c0,0,0,0.1,0.1,0.1h0.3c0,0,0,0.2-0.2,0.2H0.9c0,0-0.2,0-0.2-0.2L0.6,12.2L0.6,12.2z"/>
		<path class="st0" d="M0,12.2h0.1v0.6c0,0,0,0.1,0.1,0.1h0.3c0,0,0,0.2-0.2,0.2H0.3c0,0-0.2,0-0.2-0.2L0,12.2L0,12.2z"/>
		<circle class="st0" cx="1.1" cy="12.3" r="0.1"/>
		<circle class="st0" cx="1.1" cy="12.5" r="0.1"/>
		<circle class="st0" cx="0.4" cy="13.1" r="0.1"/>
		<g>
			<path class="st1" d="M3.3,13.7c0,0.1-0.1,0.1-0.1,0.2c0,0.1,0,0.1,0,0.2c0,0.1,0,0.2,0,0.2c0,0.1,0,0.1,0.1,0.2h0
				c-0.1-0.1-0.1-0.1-0.1-0.2c0-0.1,0-0.1,0-0.2c0-0.1,0-0.1,0-0.2C3.2,13.9,3.2,13.8,3.3,13.7L3.3,13.7L3.3,13.7z"/>
			<path class="st1" d="M4.2,14.1C4.2,14.1,4.2,14.2,4.2,14.1c-0.1,0.1-0.1,0.1-0.1,0.1H3.9c0,0-0.1,0-0.1,0c0,0.1,0,0.1,0,0.1
				c0,0-0.1,0.1-0.1,0.1H3.5c0,0-0.1,0-0.1-0.1c0,0,0-0.1,0-0.1v-0.1h0.1v0.1c0,0,0,0,0,0.1c0,0,0,0,0.1,0h0.1c0,0,0,0,0.1,0
				c0,0,0,0,0-0.1V14h0.1v0.1c0,0,0,0,0.1,0c0-0.1,0-0.1,0.1-0.1C4,14,4,14,4.1,14C4.1,14,4.1,14,4.2,14.1C4.2,14,4.2,14,4.2,14.1
				C4.2,14,4.2,14,4.2,14.1C4.2,14.1,4.2,14.1,4.2,14.1z M4.1,14.1C4.1,14.1,4.1,14.1,4.1,14.1C4.1,14,4.1,14,4.1,14.1
				C4.1,14,4,14,4,14.1c0,0,0,0.1-0.1,0.1L4.1,14.1C4.1,14.2,4.1,14.1,4.1,14.1z"/>
			<path class="st1" d="M4.4,14.2c-0.1,0-0.1,0-0.1,0c0,0,0,0,0-0.1v-0.3h0.1v0.3C4.3,14.1,4.3,14.1,4.4,14.2
				C4.3,14.2,4.4,14.2,4.4,14.2L4.4,14.2L4.4,14.2z"/>
			<path class="st1" d="M4.8,14.1l-0.2,0.1c0,0-0.1,0-0.1,0c0,0-0.1,0-0.1,0v-0.1c0.1,0,0.2,0,0.2,0c0,0,0,0,0,0
				C4.6,14.1,4.6,14.1,4.8,14.1C4.7,14,4.7,14,4.6,14c0,0,0,0-0.1,0H4.5l0-0.1h0.2C4.7,14,4.8,14,4.8,14.1z M4.6,13.8
				C4.6,13.8,4.6,13.9,4.6,13.8C4.6,13.9,4.6,13.9,4.6,13.8c-0.1,0-0.1,0-0.1,0C4.5,13.8,4.5,13.8,4.6,13.8
				C4.6,13.8,4.6,13.8,4.6,13.8z"/>
			<path class="st1" d="M5.4,14.2L5.4,14.2L5.4,14.2c-0.1,0.1-0.1,0.1-0.1,0.1c0,0-0.1,0-0.1,0H5.1c-0.1,0-0.1,0-0.1-0.1
				c0,0,0-0.1,0-0.1v-0.1H5v0.1c0,0,0,0.1,0,0.1c0,0,0,0,0.1,0h0.1c0,0,0,0,0.1,0c0,0,0,0,0-0.1c0,0,0,0-0.1,0c0,0,0,0-0.1,0l0-0.1
				L5.4,14.2L5.4,14.2z"/>
			<path class="st1" d="M5.7,14.1C5.7,14.1,5.7,14.2,5.7,14.1c-0.1,0.1-0.1,0.1-0.1,0.1c0,0-0.1,0-0.1,0c0,0-0.1,0-0.1,0v-0.1
				c0,0,0.1,0,0.1,0c0,0,0,0,0-0.1c0-0.1,0-0.1,0.1-0.1c0,0,0.1,0,0.1,0C5.7,14,5.7,14.1,5.7,14.1z M5.7,14.1
				C5.7,14,5.6,14,5.7,14.1c-0.1-0.1-0.1,0-0.1,0C5.5,14.1,5.6,14.2,5.7,14.1C5.6,14.2,5.7,14.1,5.7,14.1z"/>
			<path class="st1" d="M5.9,14.2c-0.1,0-0.1,0-0.1,0c0,0,0,0,0-0.1v-0.3h0.1v0.3C5.9,14.1,5.9,14.1,5.9,14.2
				C5.9,14.2,5.9,14.2,5.9,14.2L5.9,14.2z"/>
			<path class="st1" d="M6.2,14.2L6.2,14.2C6.2,14.2,6.2,14.3,6.2,14.2c0,0.2-0.1,0.2-0.1,0.2c-0.1,0-0.1,0-0.1-0.1l0-0.1H5.9v-0.1
				h0.1c0,0,0-0.1,0-0.1C5.9,14,6,14,6.1,14c0,0,0.1,0,0.1,0c0,0,0,0,0,0.1C6.2,14.1,6.2,14.1,6.2,14.2L6.2,14.2L6.2,14.2L6.2,14.2
				L6.2,14.2z M6.1,14.1C6.1,14,6.1,14,6.1,14.1C6,14,6,14,6,14.1c0,0,0,0,0,0.1C6,14.2,6.1,14.2,6.1,14.1
				C6.1,14.1,6.1,14.1,6.1,14.1z M6.1,14.3C6.1,14.3,6.1,14.3,6.1,14.3C6.1,14.2,6,14.2,6,14.2C6,14.3,6,14.3,6.1,14.3
				C6.1,14.3,6.1,14.3,6.1,14.3z"/>
			<path class="st1" d="M6.7,14.1C6.7,14.2,6.7,14.2,6.7,14.1c0,0.1-0.1,0.1-0.1,0.1c0,0-0.1,0-0.1,0c0,0-0.1,0-0.1,0
				s-0.1,0-0.1-0.1c0,0-0.1,0-0.1,0H6.2v-0.1h0.1c0,0,0,0,0,0V14h0.1v0.1c0,0,0,0,0,0c0,0,0,0,0,0c0,0,0,0,0,0V14h0.1v0.1
				c0,0,0,0,0,0c0,0,0,0,0,0C6.7,14.2,6.7,14.2,6.7,14.1L6.7,14.1L6.7,14.1L6.7,14.1L6.7,14.1L6.7,14.1z"/>
			<path class="st1" d="M7,14.1c0,0.1,0,0.2,0,0.2c0,0-0.1,0.1-0.1,0.2h0C6.9,14.4,6.9,14.3,7,14.1c-0.1-0.1-0.1-0.1-0.1-0.2
				c0,0,0-0.1-0.1-0.2h0c0.1,0.1,0.1,0.1,0.1,0.2C7,14,7,14,7,14.1z"/>
		</g>
	</g>
</g>
</svg>
