<?xml version="1.0" encoding="utf-8"?>
<!-- Generator: Adobe Illustrator 28.1.0, SVG Export Plug-In . SVG Version: 6.00 Build 0)  -->
<svg version="1.1" id="Layer_1" xmlns="http://www.w3.org/2000/svg" xmlns:xlink="http://www.w3.org/1999/xlink" x="0px" y="0px"
	 viewBox="0 0 1700.8 1048.8" style="enable-background:new 0 0 1700.8 1048.8;" xml:space="preserve">
<style type="text/css">
	.st0{fill:#1D73A4;}
	.st1{fill:#231F20;}
</style>
<g>
	<g>
		<path class="st0" d="M965.7,0.3C833.4-5,650,53.6,514.1,152.1c-117.2,84.6-342.2,302.7-266.5,483.4
			c65.5,156.6,327.1,212.4,508.2,142.4l176.6,170.9c-85.8,35.8-176.6,57.8-264.5,61.4c-55.3,2.4-323.5,14.2-456.1-172.5
			c-77.3-108.6-74-230.3-71.2-270.2C152.4,407.2,252.9,303,296,258.3C456.7,92.7,731.7-14.3,964.1,2"/>
		<path class="st0" d="M208.1,883.6c85,98.5,250.6,165.2,441,165.2c120,0,230.3-26.4,316.5-70.8l-22.4-19.5
			c-85.8,43.1-194.9,69.2-313.3,69.2c-180.6,0-338.9-59.8-427.2-150.1L208.1,883.6z"/>
		<path class="st0" d="M293.1,680.6c38.7,59.4,161.1,108.2,265.7,112.7c57.8,2.4,124.5-7.7,177.8-28.1l-22.4-18.7
			c-52.1,19.1-116.8,28.5-172.5,26C449.4,768.5,343.6,730.2,293.1,680.6"/>
		<path class="st0" d="M293.1,644.4c36.2,59.4,150.5,108.2,248.2,112.7c53.7,2.4,116.4-7.7,166-28.1l-20.7-18.7
			c-48.8,19.1-109,28.5-161.5,26C439.2,732.3,340.3,694,293.1,644.4"/>
	</g>
	<circle class="st1" cx="660.1" cy="434.1" r="9.8"/>
	<circle class="st1" cx="682.9" cy="434.1" r="9.8"/>
	<path class="st1" d="M896.9,528v-12.6h23.2c0,0,12.2,1.9,12.2-14.8v-45.1h13.4v40.3c0,0-0.4,32.2-21.6,32.2H896.9z"/>
	<rect x="955.5" y="414.5" class="st1" width="13.4" height="85.5"/>
	<path class="st1" d="M628.8,483.5h67.1c0,0,7.3,1.3,7.3-9v-19h13.4v23.9c0,0,3.3,20.6-18.7,20.6l-51.3,0.3
		C646.7,500.3,628.8,503.2,628.8,483.5z"/>
	<path class="st1" d="M813.5,414.5h13.4v56.8c0,0-2,11.9,14.2,11.9c0,0,13.8-0.3,13.8-11.9v-16.1h13.4v17.1c0,0-2.8,11,16.7,11
		c0,0,15.1,1.3,15.1-9.4v-18.7H916v21.9c0,0,3.7,22.6-20.3,22.6h-17.1c0,0-14.6,1.9-16.7-8.4c0,0,0.8,8.4-18.3,8.4
		c0,0-30.1,3.2-30.1-18.7V414.5z"/>
	<circle class="st1" cx="845.2" cy="518.3" r="9.8"/>
	<circle class="st1" cx="890.8" cy="432" r="9.8"/>
	<circle class="st1" cx="913.6" cy="432" r="9.8"/>
	<circle class="st1" cx="1257.8" cy="432.8" r="9.8"/>
	<circle class="st1" cx="1280.2" cy="432.8" r="9.8"/>
	<path class="st1" d="M1561.3,483.5c0,0,1.2,16.4-18.3,16.4h-70.8c0,0,0,28.1-23.6,28.1h-21.6v-14.5l12.6,0.3
		c0,0,17.9,0.6,17.9-13.9v-44.5h14.6v28.1H1561.3z"/>
	<path class="st1" d="M1300.5,483.5h73.2v-28.1h14.6v28.1h41.9c0,0,13.8-1.9-28.1-39.7v-18.1l41.5-19v17.7l-24.8,11.9l17.5,19
		c0,0,9.4,11.6,9.8,28.1c0,0,1.2,18.4-26,16.4h-17.9c0,0-16.7,1.6-20.7-8.4c0,0-1.2,8.4-21.6,8.4h-38.7
		C1320.9,500,1300.5,502.9,1300.5,483.5z"/>
	<circle class="st1" cx="1333.1" cy="432.8" r="9.8"/>
	<circle class="st1" cx="1355.5" cy="432.8" r="9.8"/>
	<circle class="st1" cx="1519" cy="438.9" r="9.8"/>
	<circle class="st1" cx="1540.6" cy="438.9" r="9.8"/>
	<circle class="st1" cx="1528.8" cy="417.4" r="9.8"/>
	<path class="st1" d="M1238.3,483.5v-15.5c0-24.8-20.3-24.2-20.3-24.2c-22.8,0-21.2,30-21.2,30c0,31.3,30.5,26.4,30.5,26.4
		c-0.8,19.3-19.9,15.5-19.9,15.5h-10.6V528h21.2c21.2,0,20.3-28.1,20.3-28.1h25.2c13,0,13.8-16.8,13.8-16.8h-39.1L1238.3,483.5
		L1238.3,483.5z M1226.5,483.5c0,0-14.6,2.3-15.1-11c0,0-1.2-12.9,5.7-12.9c0,0,9-1,9.4,14.2V483.5z"/>
	<path class="st1" d="M1188.2,479v-23.5h-14.6v23.9c0,5.5-6.1,4.2-6.1,4.2c-6.1,0-6.1-4.8-6.1-4.8v-23.2h-14.6v24.2
		c0,4.2-6.1,3.9-6.1,3.9c-8.1,0-7.3-3.9-7.3-3.9v-24.2h-13.4v21.9c0,8.4-9.4,6.1-9.4,6.1c-19.1,0-19.1-2.9-19.1-2.9
		c11.8-2.9,10.2-16.8,10.2-16.8c0-19.7-16.3-20-16.3-20h-22.8l-7.3,19l15.1,17.1c-3.7,5.8-15.1,3.5-15.1,3.5
		c-8.5,0-43.1-49.7-43.1-49.7c-14.6,8.4-5.3,19.7-5.3,19.7c-12.6,1.9-12.6,22.9-12.6,22.9c0,26.1,21.6,24.2,21.6,24.2
		c17.5,0.6,19.5-13.2,19.5-13.2c3.7,13.9,25.2,13.2,25.2,13.2c17.9,0.6,18.7-8.7,18.7-8.7c1.2,11.3,29.7,8.4,29.7,8.4
		c17.5,0.3,18.3-8.4,18.3-8.4c1.6,8.4,16.7,8.4,16.7,8.4c10.6,0.3,12.6-8.4,12.6-8.4c1.2,9.7,17.1,8.4,17.1,8.4
		C1190.7,500.3,1188.2,479,1188.2,479z M1010,481.9c0,0-12.6-6.8,4.5-20l11.8,12.6C1026.3,474.5,1018.2,488.7,1010,481.9z
		 M1078.4,471.6l-8.5-11.9h17.1L1078.4,471.6z"/>
	<path class="st1" d="M805,474.8c0-34.5-19.1-31-19.1-31c-15.9,0-19.9,11.6-19.9,11.6v-41h-13.4v69c-13.4,0-11.4-11-11.4-11v-58
		h-15.5v63.5c0,22.6,26.9,21.9,26.9,21.9H783C805.8,500,805,474.8,805,474.8z M792.4,472.9c0,0,0,11.3-9.4,11l-17.1-0.3
		c0,0,6.9-22.6,18.3-22.9C784.2,460.6,793.2,459.3,792.4,472.9z"/>
	<path class="st0" d="M550.3,418.1h14.6v59.7c0,0,0.8,8.7,9.8,8.7h35.4c0,0,3.3,17.4-17.9,16.8h-17.9c0,0-24,3.5-24-22.2
		L550.3,418.1L550.3,418.1z"/>
	<path class="st0" d="M484.8,418.1h14.6v59.7c0,0,0.8,8.7,9.8,8.7h35.4c0,0,3.3,17.4-17.9,16.8h-17.9c0,0-24,3.5-24-22.2
		L484.8,418.1L484.8,418.1z"/>
	<circle class="st0" cx="596.7" cy="432.4" r="9.8"/>
	<circle class="st0" cx="596.7" cy="455.6" r="9.8"/>
	<circle class="st0" cx="521" cy="519.9" r="9.8"/>
	<g>
		<path class="st1" d="M841.6,585.4c-4.5,8.5-7.3,15.5-9.4,20.8c-2.4,7.3-3.7,15.1-3.7,22.4c0,9.4,0.8,17.9,2.8,25.2
			c2,7.3,5.3,15.1,9.8,23.2h-4.1c-5.7-8.1-9.4-15.1-12.2-22c-2.8-7.7-4.5-15.9-4.5-24.4c0-8.1,1.6-15.9,4.9-23.6
			c2-5.3,6.1-12.2,11.8-21.2L841.6,585.4L841.6,585.4z"/>
		<path class="st1" d="M934.8,629.3c0,4.1-1.2,6.9-3.7,9.4c-2.4,2.4-5.3,3.7-9.4,3.7h-19.9c-4.1,0-6.5-1.2-7.7-3.7
			c0,6.1-1.6,11-4.5,15.1c-3.3,4.9-8.1,6.9-13.8,6.9h-11c-5.3,0-9.8-2-13-6.1c-3.3-3.7-4.9-8.5-4.9-13.8v-14.2h7.3v15.9
			c0,2.8,1.2,5.3,3.7,7.3c2.4,2,4.9,3.3,7.7,3.3h10.2c2.8,0,5.3-1.2,7.7-3.3c2.4-2,3.7-4.5,3.7-7.3v-23.2h7.3v11
			c0,3.3,2.4,4.9,6.9,4.9c2-5.7,4.9-10.2,7.7-13.8c4.1-5.3,8.5-7.7,12.6-7.7c4.1,0,6.9,1.6,9.4,5.3c0.4,0.4,0.8,1.2,1.2,2
			c0,0.4,0.8,2,1.6,4.1C934.8,626.1,934.8,627.7,934.8,629.3z M927.8,628.1c0-1.6-0.4-3.3-1.2-4.9c-0.8-2-2-3.3-3.3-3.3
			c-2.4,0-5.3,2-8.5,5.7c-2.4,2.8-4.5,6.1-5.7,9H923C926.2,635,927.8,632.6,927.8,628.1z"/>
		<path class="st1" d="M957.5,642.4c-6.1,0-10.6-1.2-13-3.7c-1.6-1.6-2.4-4.1-2.4-7.7v-34.6h7.3v31.3c0,3.3,0.4,5.3,1.6,6.1
			c0.8,0.4,2.8,0.8,6.5,0.8V642.4z"/>
		<path class="st1" d="M996.2,628.1l-16.7,9.4c-4.1,2.4-8.1,3.7-12.2,4.1c-2,0.4-6.5,0.4-13,0.4v-7.3c9.4,0,16.3-0.8,19.9-2.8
			c0.4,0,2-1.2,5.3-2.8c2-1.2,4.9-2.8,9-4.9c-0.8-2-2.4-3.3-4.9-3.7c-0.8-0.4-3.3-0.4-6.5-0.4h-12.6l-0.8-7.3h17.9
			C991.3,613.1,996.2,617.9,996.2,628.1z M982.4,600c0,1.2-0.4,2.4-1.6,3.7c-1.2,1.2-2,1.6-3.7,1.6c-3.7,0-5.7-1.6-5.7-4.9
			c0-2.8,1.6-4.5,5.3-4.5C980.3,595.6,982.4,597.2,982.4,600z"/>
		<path class="st1" d="M1069.8,642.4h-6.9l0.4,3.7c0,4.1-1.6,7.7-4.9,10.6c-3.3,2.8-6.9,4.1-11,4.1h-11.4c-5.7,0-10.2-2-13.4-6.5
			c-2.8-3.7-4.5-9-4.5-14.6v-13h7.3v15.9c0,3.7,1.2,6.1,3.7,8.1c2.4,1.6,5.3,2.8,8.5,2.8h9.4c2.4,0,4.9-0.8,6.5-2
			c1.6-1.6,2.8-3.7,2.8-6.1c0-1.6-2-2.4-6.5-2.8c-0.8,0-3.7,0-8.5,0l-0.8-7.3h29.3V642.4z"/>
		<path class="st1" d="M1100.3,628.5c0,4.1-1.2,7.7-3.3,10.2c-2.4,2.8-5.3,4.5-9.4,4.5c-3.3,0-5.7-0.8-8.1-2.8
			c-2.4,1.2-6.5,1.6-12.2,1.6v-7.3c4.1,0,6.5-0.4,7.3-1.2c0.4-0.4,0.4-2,0.4-5.7c0.4-10.2,4.5-15.1,13-15.1c4.1,0,7.3,1.6,9.4,4.9
			C1099.5,620.8,1100.3,624.5,1100.3,628.5z M1094.2,628.1c0-5.3-2-7.7-6.1-7.7c-4.1,0-6.5,2.8-6.5,8.1c0,4.9,2,7.7,6.5,7.7
			C1092.2,635.9,1094.2,633.4,1094.2,628.1z"/>
		<path class="st1" d="M1123.5,642.4c-6.1,0-10.6-1.2-13-3.7c-1.6-1.6-2.4-4.1-2.4-7.7v-34.6h7.3v31.3c0,3.3,0.4,5.3,1.6,6.1
			c0.8,0.4,2.8,0.8,6.5,0.8V642.4z"/>
		<path class="st1" d="M1155.7,642.4h-9.4c3.7,2.4,5.3,6.1,5.3,10.6c0,5.7-3.7,8.5-10.6,8.5c-8.5,0-13.4-3.7-14.2-11.4l-0.8-8.1
			h-6.1v-7.3h6.1c-0.4-4.9-0.4-7.7-0.4-8.1c0-9,4.5-13.4,13.4-13.4c3.7,0,6.5,0.8,9,2.8c2.4,2,3.7,4.9,3.7,8.5
			c0,4.1-1.6,7.3-4.9,10.2h9.4v7.7L1155.7,642.4L1155.7,642.4z M1144.3,624.9c0-3.3-1.6-4.9-4.9-4.9c-4.5,0-6.9,3.3-6.9,9.4
			c0,0.4,0,2.4,0,5.7c3.3,0,5.7-0.8,8.1-2.8C1143.1,630.2,1144.3,627.7,1144.3,624.9z M1145.9,650.5c0-2.8-1.6-4.9-4.5-6.9
			c-2.4-1.6-5.3-2-8.5-2c0,9,2.4,13.4,7.3,13.4C1143.9,655.4,1145.9,653.8,1145.9,650.5z"/>
		<path class="st1" d="M1210.6,630.6c0,3.7-0.8,6.5-2.4,9c-2,2.4-4.5,3.7-8.1,3.7c-3.3,0-6.5-1.6-9.8-4.9c-2.8,3.3-5.7,4.9-9,4.9
			s-6.5-2-9.8-5.7c-2.8,3.3-6.1,4.9-9.4,4.9h-9.4V635h9c3.3,0,4.9-1.6,4.9-5.3v-10.2h7.3v11c0,1.6,0.8,3.3,2,4.5s2.8,1.6,4.5,1.6
			c3.3,0,4.9-1.6,4.9-4.5V620h7.3v11c0,1.6,0.8,3.3,2,4.1c1.2,1.2,2.8,1.6,4.5,1.6c3.3,0,5.3-1.6,5.3-4.5V620h7.3v10.6L1210.6,630.6
			L1210.6,630.6z"/>
		<path class="st1" d="M1237.1,631.4c0,8.1-1.6,16.3-4.9,24c-2,5.3-6.1,12.6-11.8,21.6h-3.7c8.5-16.3,13-30.5,13-43.1
			c0-10.2-0.8-18.3-2.8-25.2c-1.6-5.3-4.9-13-10.2-23.2h4.1c5.7,8.1,9.4,15.5,11.8,21.6C1235.4,615.1,1237.1,623.2,1237.1,631.4z"/>
	</g>
</g>
</svg>
